Coordinates
version=1
nRows=11
nColumns=40
inDegrees=yes

Units are S.I. units (second, meters, Newtons, ...)
Angles are in degrees.

endheader
time	pelvis_tilt	pelvis_list	pelvis_rotation	pelvis_tx	pelvis_ty	pelvis_tz	hip_flexion_r	hip_adduction_r	hip_rotation_r	knee_angle_r	knee_angle_r_beta	ankle_angle_r	subtalar_angle_r	mtp_angle_r	hip_flexion_l	hip_adduction_l	hip_rotation_l	knee_angle_l	knee_angle_l_beta	ankle_angle_l	subtalar_angle_l	mtp_angle_l	lumbar_extension	lumbar_bending	lumbar_rotation	arm_flex_r	arm_add_r	arm_rot_r	elbow_flex_r	pro_sup_r	wrist_flex_r	wrist_dev_r	arm_flex_l	arm_add_l	arm_rot_l	elbow_flex_l	pro_sup_l	wrist_flex_l	wrist_dev_l
      1.19000000	     -1.81829468	      0.80540338	     -1.74396756	     -0.87989442	      0.89615590	      1.42110232	     -2.48264420	     -2.73020264	    -10.63197011	    -33.61119761	     -0.58662606	      2.91277367	     -1.92211522	     -3.09400645	     16.49149115	     -2.22253180	     11.42803309	    -12.87761359	     -0.22475676	     -3.51586339	     -2.88550264	     -7.07974427	     -8.23235622	     -1.73971912	      1.95065560	      9.86222405	     -8.35455568	     16.01312404	     16.84187352	     89.95437384	      0.00000000	      0.00000000	      0.68106995	      7.38690461	     -8.27134533	     14.12506637	     89.95437384	      0.00000000	      0.00000000
      1.20000000	     -1.93029708	      0.85554973	     -1.84558229	     -0.87366065	      0.89649705	      1.41975736	     -1.59057195	     -3.19144910	    -10.66081555	    -35.39279925	     -0.61772088	      1.31354203	     -1.95375645	     -2.77891633	     16.14164778	     -2.36737798	     11.54078559	    -12.85288345	     -0.22432513	     -3.10706763	     -3.15774250	     -7.02637953	     -8.11012751	     -1.75646511	      1.86978329	      9.71419271	     -8.41513449	     15.99569459	     16.55320078	     89.95437384	      0.00000000	      0.00000000	      1.01750797	      7.46681705	     -8.12839764	     14.33015117	     89.95437384	      0.00000000	      0.00000000
      1.21000000	     -2.04649974	      1.02835321	     -1.91757213	     -0.86738981	      0.89665209	      1.41820895	     -0.57758876	     -3.72513209	    -10.44154216	    -37.33340758	     -0.65159088	     -0.34640249	     -2.11593306	     -2.39718413	     15.84884021	     -2.65650314	     11.73653320	    -12.90561320	     -0.22524544	     -2.76510618	     -3.38734326	     -6.95977298	     -7.96314632	     -1.88145186	      1.70076564	      9.57673418	     -8.46582118	     15.96384517	     16.29205699	     89.95437384	      0.00000000	      0.00000000	      1.31203702	      7.51411722	     -7.87306733	     14.55046446	     89.95437384	      0.00000000	      0.00000000
      1.22000000	     -2.09873837	      1.15578035	     -2.00443273	     -0.86143697	      0.89688048	      1.41684075	      0.42604490	     -4.18497568	    -10.19416930	    -39.21436242	     -0.68441974	     -2.41248874	     -2.13666745	     -2.02700369	     15.50117439	     -2.87993219	     11.84624246	    -12.97033900	     -0.22637512	     -2.30189518	     -3.62381246	     -6.90575549	     -7.95165181	     -1.96445163	      1.63720574	      9.50840061	     -8.52399866	     15.90738318	     15.99605311	     89.95437384	      0.00000000	      0.00000000	      1.72710646	      7.58107632	     -7.71848426	     14.83245866	     89.95437384	      0.00000000	      0.00000000
      1.23000000	     -1.99389080	      1.20261916	     -2.11370241	     -0.85527974	      0.89716431	      1.41562832	      1.26602234	     -4.57457241	    -10.00490120	    -41.10351989	     -0.71739176	     -4.09621688	     -2.27615722	     -1.75918000	     14.97411860	     -3.01611031	     11.91607902	    -13.05962203	     -0.22793340	     -1.87349373	     -3.82511267	     -6.86526159	     -8.05209068	     -1.97274959	      1.57765865	      9.47068025	     -8.58676115	     15.89941684	     15.67118362	     89.95437384	      0.00000000	      0.00000000	      2.12511160	      7.67831620	     -7.63039042	     15.15268895	     89.95437384	      0.00000000	      0.00000000
      1.24000000	     -2.15132250	      1.57481206	     -2.23824032	     -0.84964743	      0.89696044	      1.41424255	      2.59748519	     -5.28023992	     -9.57890384	    -43.12456863	     -0.75266571	     -6.46453304	     -3.19068856	     -1.10106691	     14.77458017	     -3.49425688	     12.27411892	    -13.09142271	     -0.22848843	     -1.62151277	     -3.96664947	     -6.75097398	     -7.90988836	     -2.32922859	      1.48023475	      9.38765699	     -8.62062002	     15.75906809	     15.54042372	     89.95437384	      0.00000000	      0.00000000	      2.61194445	      7.78791404	     -7.56561457	     15.32328907	     89.95437384	      0.00000000	      0.00000000
      1.25000000	     -2.02057833	      1.78781434	     -2.29960795	     -0.84374321	      0.89710163	      1.41292066	      3.48939248	     -5.82307029	     -9.32925823	    -44.89511824	     -0.78356763	     -8.25021439	     -3.94202372	     -0.69055429	     14.20101789	     -3.83262705	     12.33889902	    -13.10483096	     -0.22872245	     -1.04688789	     -4.25935320	     -6.75893628	     -8.04922460	     -2.50584668	      1.28740756	      9.44990297	     -8.63096981	     15.73918715	     15.21987957	     89.95437384	      0.00000000	      0.00000000	      3.09780625	      7.93026785	     -7.57942329	     15.56407470	     89.95437384	      0.00000000	      0.00000000
      1.26000000	     -1.90631016	      2.01647276	     -2.28794113	     -0.83807949	      0.89718458	      1.41160580	      4.44107661	     -6.30073875	     -9.08978418	    -46.64897139	     -0.81417814	     -9.27367654	     -5.09537342	     -0.31595056	     13.68223427	     -4.19509461	     12.36225390	    -13.12303464	     -0.22904016	     -0.65183754	     -4.46617774	     -6.72732744	     -8.19767232	     -2.70025623	      1.05426985	      9.47704552	     -8.66076511	     15.70767387	     15.01250663	     89.95437384	      0.00000000	      0.00000000	      3.58324097	      8.10144328	     -7.52733265	     15.95010470	     89.95437384	      0.00000000	      0.00000000
      1.27000000	     -1.84349799	      2.27484844	     -2.43009098	     -0.83257060	      0.89717581	      1.41049007	      5.52280760	     -6.77987930	     -8.72332304	    -48.37436978	     -0.84429203	     -9.60946423	     -7.22413745	      0.40370846	     13.19969288	     -4.54892577	     12.57276228	    -13.09117858	     -0.22848417	     -0.42170820	     -4.50756605	     -6.60141594	     -8.29836205	     -2.93404050	      0.97858063	      9.46677669	     -8.71019911	     15.53847942	     14.98862592	     89.95437384	      0.00000000	      0.00000000	      4.16551892	      8.23818870	     -7.36977379	     16.24326154	     89.95437384	      0.00000000	      0.00000000
      1.28000000	     -1.58826761	      2.45545550	     -2.35803979	     -0.82689180	      0.89745800	      1.40916160	      6.24447528	     -7.29530353	     -8.86021468	    -49.84413932	     -0.86994434	     -8.83624245	     -8.54292718	      0.63019579	     12.51517901	     -4.87865807	     12.52247918	    -13.12251972	     -0.22903118	      0.13752465	     -4.78799887	     -6.62552635	     -8.59750799	     -3.06662763	      0.68071146	      9.52978918	     -8.73609621	     15.49643084	     14.80976822	     89.95437384	      0.00000000	      0.00000000	      4.76581188	      8.41224828	     -7.43095774	     16.50814430	     89.95437384	      0.00000000	      0.00000000
      1.29000000	     -1.37460301	      2.64927111	     -2.32599934	     -0.82136640	      0.89772578	      1.40784948	      7.05820453	     -7.82492178	     -9.00683699	    -51.20853725	     -0.89375758	     -7.87381823	    -10.22377101	      0.91550104	     11.85238069	     -5.20965864	     12.62139915	    -13.05853782	     -0.22791448	      0.48320513	     -5.03640411	     -6.62104193	     -8.84156462	     -3.20397276	      0.43679722	      9.57231546	     -8.77407809	     15.47241011	     14.69684552	     89.95437384	      0.00000000	      0.00000000	      5.38174150	      8.56463044	     -7.43208865	     16.81541929	     89.95437384	      0.00000000	      0.00000000
